<?xml version="1.0" standalone="no"?>
<!DOCTYPE svg PUBLIC "-//W3C//DTD SVG 20010904//EN"
 "http://www.w3.org/TR/2001/REC-SVG-20010904/DTD/svg10.dtd">
<svg version="1.0" xmlns="http://www.w3.org/2000/svg"
 width="512.000000pt" height="512.000000pt" viewBox="0 0 512.000000 512.000000"
 preserveAspectRatio="xMidYMid meet">

<g transform="translate(0.000000,512.000000) scale(0.100000,-0.100000)"
fill="#000000" stroke="none">
<path d="M640 4464 c-146 -40 -266 -161 -305 -309 -10 -38 -15 -104 -15 -187
l0 -128 2001 0 2001 0 -4 153 c-4 125 -8 162 -26 207 -43 110 -141 207 -252
253 l-55 22 -1645 2 c-1425 2 -1652 0 -1700 -13z"/>
<path d="M322 2808 c3 -713 3 -713 25 -768 46 -111 142 -207 253 -253 l55 -22
958 -3 957 -2 0 40 c0 55 36 217 66 296 242 645 973 958 1597 684 l87 -38 0
389 0 389 -2000 0 -2001 0 3 -712z m1095 203 c65 -29 134 -101 159 -166 16
-42 19 -76 19 -210 0 -147 -2 -164 -24 -212 -29 -65 -101 -134 -166 -159 -73
-28 -337 -28 -409 0 -63 24 -130 86 -164 151 -26 49 -27 55 -27 225 0 164 1
178 24 220 43 84 123 149 206 171 17 4 98 7 180 6 133 -2 156 -5 202 -26z"/>
<path d="M3588 2705 c-370 -62 -688 -330 -809 -683 -75 -216 -76 -460 -4 -671
118 -349 412 -610 770 -687 104 -22 248 -28 349 -15 461 62 826 424 895 888
37 244 -29 524 -173 733 -46 67 -183 207 -251 255 -221 158 -511 225 -777 180z
m414 -513 c74 -46 99 -156 50 -221 -43 -59 -76 -71 -188 -71 l-104 0 0 -29 0
-29 109 -4 c118 -3 141 -12 185 -72 20 -26 21 -43 24 -257 3 -218 2 -233 -18
-274 -13 -27 -36 -53 -58 -67 -35 -22 -46 -23 -242 -23 -194 0 -207 1 -240 22
-43 26 -80 88 -80 132 0 44 22 91 59 126 31 29 35 30 147 33 l114 4 0 28 0 28
-109 4 c-118 3 -141 12 -185 72 -20 26 -21 43 -24 261 -3 217 -2 237 17 273
20 40 55 68 100 83 14 4 112 7 216 6 179 -2 192 -3 227 -25z"/>
</g>
</svg>
