<?xml version="1.0" standalone="no"?>
<!DOCTYPE svg PUBLIC "-//W3C//DTD SVG 20010904//EN"
 "http://www.w3.org/TR/2001/REC-SVG-20010904/DTD/svg10.dtd">
<svg version="1.0" xmlns="http://www.w3.org/2000/svg"
 width="512.000000pt" height="512.000000pt" viewBox="0 0 512.000000 512.000000"
 preserveAspectRatio="xMidYMid meet">

<g transform="translate(0.000000,512.000000) scale(0.100000,-0.100000)"
fill="#000000" stroke="none">
<path d="M535 5106 c-77 -34 -262 -289 -359 -497 -238 -510 -233 -1097 14
-1604 87 -180 241 -398 321 -458 92 -67 229 5 229 120 0 55 -6 67 -91 172
-166 204 -271 433 -326 709 -27 135 -24 433 6 572 57 267 163 491 331 695 72
89 80 104 80 158 0 105 -109 175 -205 133z"/>
<path d="M2377 5105 c-50 -17 -85 -50 -108 -100 -18 -38 -19 -110 -19 -1808 0
-1573 2 -1772 15 -1805 21 -49 52 -81 100 -103 37 -17 76 -19 578 -19 l537 0
0 1925 0 1925 -532 0 c-425 -1 -541 -4 -571 -15z"/>
<path d="M3780 4165 c0 -525 2 -955 5 -955 3 0 24 9 45 20 65 33 167 52 258
48 l82 -3 0 923 0 922 -195 0 -195 0 0 -955z"/>
<path d="M4470 4118 l0 -1003 189 -177 c105 -98 192 -178 196 -178 3 0 4 504
3 1119 l-3 1119 -31 39 c-53 66 -100 83 -236 83 l-118 0 0 -1002z"/>
<path d="M982 4724 c-93 -48 -254 -307 -320 -514 -44 -141 -57 -228 -56 -395
0 -215 36 -376 124 -560 72 -150 221 -344 291 -380 73 -38 167 -5 201 72 30
69 19 106 -61 200 -164 194 -242 379 -257 613 -15 224 63 487 195 655 85 107
92 120 93 168 2 112 -114 190 -210 141z"/>
<path d="M1455 4376 c-16 -7 -49 -34 -72 -59 -228 -248 -256 -624 -69 -906 94
-141 169 -183 259 -143 53 23 77 55 84 111 8 57 0 80 -55 147 -86 108 -119
205 -109 331 6 86 43 175 103 249 55 67 64 86 64 131 0 57 -29 104 -80 131
-50 25 -82 27 -125 8z"/>
<path d="M3979 2967 c-125 -47 -192 -140 -192 -268 0 -49 6 -79 23 -114 15
-32 117 -148 307 -349 157 -165 292 -314 301 -331 14 -25 18 -74 22 -282 5
-234 6 -254 26 -279 33 -45 66 -64 129 -74 87 -14 140 -60 151 -132 9 -53 -25
-118 -75 -146 -39 -22 -39 -22 -677 -22 l-637 0 75 -78 c89 -92 120 -137 149
-217 20 -54 23 -86 28 -320 7 -288 8 -295 74 -336 31 -19 52 -19 689 -17 646
3 657 3 685 24 15 11 36 36 46 55 16 32 17 92 15 964 l-3 930 -27 69 c-14 38
-43 93 -64 123 -54 79 -786 760 -843 786 -57 25 -154 32 -202 14z"/>
<path d="M3780 1710 l0 -440 191 0 191 0 -7 23 c-5 12 -11 126 -14 254 l-6
232 -174 186 c-95 102 -175 185 -177 185 -2 0 -4 -198 -4 -440z"/>
</g>
</svg>
